<!-- Icon by [Oh Rian](https://thenounproject.com/ohrianid/): Creative Commons (CCBY) license -->
<svg height='300px' width='300px'  xmlns="http://www.w3.org/2000/svg" xmlns:xlink="http://www.w3.org/1999/xlink" version="1.1" x="0px" y="0px" viewBox="0 0 100 100" style="enable-background:new 0 0 100 100;" xml:space="preserve"><style>path, polygon, circle { fill: #002333; } @media (prefers-color-scheme: dark ) { path, polygon, circle { fill: #fff; } }</style><g><path d="M84.19,26.96h-1.97l-1.09-6.15c-0.56-3.15-3.58-5.26-6.73-4.7L14.79,26.66c-3.15,0.56-5.26,3.57-4.7,6.73l7.76,43.85v0.94   c0,3.2,2.6,5.81,5.81,5.81h60.54c3.2,0,5.81-2.6,5.81-5.81V32.77C90,29.57,87.4,26.96,84.19,26.96z M75.13,20.2   c0.9-0.16,1.76,0.44,1.92,1.34l0.96,5.42H36.89L75.13,20.2z M17.85,53.43l-3.67-20.76c-0.16-0.9,0.44-1.76,1.34-1.92l2.92-0.52   c-0.38,0.77-0.59,1.63-0.59,2.54V53.43z M85.85,78.17c0,0.91-0.74,1.66-1.66,1.66H23.65c-0.91,0-1.66-0.74-1.66-1.66V32.77   c0-0.91,0.74-1.66,1.66-1.66h60.54c0.91,0,1.66,0.74,1.66,1.66V78.17z"></path><polygon points="48.17,67.87 38.12,57.82 26.14,69.79 26.14,75.69 81.71,75.69 81.71,62.74 67.5,48.54  "></polygon><circle cx="34.33" cy="43.24" r="6.53"></circle></g></svg>
